# xmcd
#
# Track frame offsets: 
#        150
#        11360
#        25867
#        40012
#        51517
#        64442
#        76657
#        89542
#        101632
#        114675
#        125025
#        139870
#        153970
#        164992
#        177880
#        190335
#        202625
#        214507
#        226380
#        237307
#        250030
#        263190
#        277702
#        289895
#
# Disc length: 3986 seconds
#
# Revision: 6
# Processed by: cddbd v1.5.2PL0 Copyright (c) Steve Scherf et al.
# Submitted via: ExactAudioCopy v0.95b3
#
DISCID=520f9018
DTITLE=Bill Monroe - The Music of Bill Monroe [disc 1: 1936-1952]
DYEAR=1994
DGENRE=Bluegrass
TTITLE0=Monroe Brothers - My Long Journey Home [1936]
TTITLE1=Monroe Brothers - What Would You Give in Exchange (for Your So
TTITLE1=ul)? [1936]
TTITLE2=Muleskinner Blues [1939]
TTITLE3=Cryin' Holy unto My Lord [1940]
TTITLE4=Back Up and Push [1941]
TTITLE5=Goodbye Old Pal [1945]
TTITLE6=Heavy Traffic Ahead [1946]
TTITLE7=Wicked Path of Sin [1946]
TTITLE8=It's Mighty Dark to Travel [1947]
TTITLE9=Bluegrass Breakdown [1947]
TTITLE10=Can't You Hear Me Callin' [1949]
TTITLE11=My Little Georgia Rose [1950]
TTITLE12=I'm on My Way to the Old Home [1950]
TTITLE13=I'm Blue, I'm Lonesome [1950]
TTITLE14=Uncle Pen [1950]
TTITLE15=Lord Protect My Soul [1950]
TTITLE16=Raw Hide [1951]
TTITLE17=Brakeman's Blues [1951]
TTITLE18=Sugar Coated Love [1951]
TTITLE19=Christmas Time's a Coming [1951]
TTITLE20=The First Whippoorwill [1951]
TTITLE21=In the Pines [1952]
TTITLE22=Footprints in the Snow [1952]
TTITLE23=Walking in Jerusalem [1952]
EXTD=4CD box set subtitle: From 1936 to 1994\nWilliam Smith "Bill" Mon
EXTD=roe (1911-09-13/1996-09-09): mandolin, vocals\n4CD: MCA MCAC/D4-1
EXTD=1048 (1994-07-19), UPC 008811104825.
EXTT0=
EXTT1=
EXTT2=
EXTT3=
EXTT4=
EXTT5=
EXTT6=
EXTT7=
EXTT8=
EXTT9=
EXTT10=
EXTT11=
EXTT12=
EXTT13=
EXTT14=
EXTT15=
EXTT16=
EXTT17=
EXTT18=
EXTT19=
EXTT20=
EXTT21=
EXTT22=
EXTT23=
PLAYORDER=
